<svg width="736" height="167" viewBox="0 0 736 167" fill="none" xmlns="http://www.w3.org/2000/svg">
<path d="M124.78 1.10388H39.29C17.5907 1.10388 0 18.6946 0 40.3939V125.884C0 147.583 17.5907 165.174 39.29 165.174H124.78C146.479 165.174 164.07 147.583 164.07 125.884V40.3939C164.07 18.6946 146.479 1.10388 124.78 1.10388Z" fill="#E89B00"/>
<path d="M164.079 40.4839V125.804C164.079 28.1539 124.699 1.10388 124.699 1.10388C146.449 1.10388 164.079 18.7339 164.079 40.4839Z" fill="url(#paint0_linear_316_18692)"/>
<path d="M66.8896 98.0439C42.0696 98.0439 32.6896 86.7739 38.7396 64.2439C44.6496 42.1039 60.0096 31.0339 84.8296 31.0339H133.23L125.26 60.8139H76.8596C71.8996 60.8139 69.1196 61.9539 68.5196 64.2439C67.7796 66.9239 69.8896 68.2639 74.8496 68.2639H97.1896C122.01 68.2639 131.47 79.3339 125.56 101.474C119.5 124.014 104.07 135.274 79.2496 135.274H30.8496L38.8196 105.494H87.2196C92.1796 105.494 95.0396 104.154 95.7796 101.474C96.3796 99.1939 94.1896 98.0439 89.2296 98.0439H66.8896Z" fill="white"/>
<path d="M39.3809 1.10388H124.701C146.451 1.10388 164.081 18.7339 164.081 40.4839V125.804C148.421 56.5039 110.421 11.1239 39.3809 1.10388Z" fill="url(#paint1_linear_316_18692)"/>
<path d="M124.7 165.184H39.38C17.63 165.184 0 147.554 0 125.804V40.4839C0 40.4839 5.00002 165.184 124.7 165.184Z" fill="url(#paint2_linear_316_18692)"/>
<path d="M143.311 149.969C153.145 140.951 133.685 103.724 99.8452 66.8202C66.0054 29.9164 30.6004 7.31053 20.7659 16.3285C10.9314 25.3465 30.3915 62.5734 64.2313 99.4772C98.0711 136.381 133.476 158.987 143.311 149.969Z" fill="url(#paint3_linear_316_18692)"/>
<path d="M207.651 43.1658C207.166 43.5469 206.094 46.8041 206.094 47.8782C206.094 48.3633 205.956 48.8831 205.749 48.987C205.576 49.091 205.403 49.5068 205.403 49.9226C205.403 50.3037 205.022 51.8284 204.573 53.2837C204.123 54.739 203.57 56.5408 203.397 57.3031C202.671 60.1791 201.876 62.8818 201.564 63.6441C201.391 64.0945 201.253 64.8222 201.253 65.2727C201.253 65.7231 201.115 66.1736 200.942 66.2775C200.769 66.3815 200.561 66.9705 200.458 67.5942C200.354 68.2179 200.008 69.6039 199.697 70.6434C199.386 71.683 199.04 72.9304 198.936 73.4155C198.867 73.9006 198.66 74.5936 198.521 74.9747C197.76 76.9498 197.103 79.3407 197.103 80.103C197.103 80.5881 196.965 81.1078 196.758 81.2118C196.585 81.3157 196.412 81.7662 196.412 82.182C196.412 82.5978 196.031 84.0185 195.547 85.3698C195.098 86.6865 194.683 88.1418 194.683 88.5576C194.683 88.9734 194.544 89.4239 194.337 89.5278C194.164 89.6318 193.991 90.2555 193.991 90.9139C193.991 91.5722 193.818 92.1959 193.645 92.2999C193.438 92.4038 193.299 92.8196 193.299 93.1661C193.299 93.5473 193.057 94.5868 192.781 95.4877C192.504 96.3886 192.124 97.6014 191.951 98.1904C191.778 98.7448 191.259 100.547 190.775 102.175C190.291 103.804 189.738 105.744 189.53 106.506C189.323 107.269 188.769 109.209 188.285 110.838C187.421 113.783 187.248 114.372 186.176 118.288C185.865 119.431 185.484 120.644 185.311 120.956C185.138 121.302 185 121.891 185 122.307V123L205.507 122.896C225.322 122.757 226.082 122.723 228.711 121.995C236.491 119.847 243.511 114.407 247.834 107.199C248.698 105.744 251.05 100.928 251.05 100.581C251.05 100.373 251.361 99.5418 251.776 98.7448C252.156 97.9132 252.641 96.4579 252.814 95.453C253.609 91.399 253.782 90.4981 254.128 89.0081C254.335 88.1418 254.646 87.137 254.819 86.7558C255.234 85.9242 255.545 84.4343 255.753 82.5978C255.857 81.8355 256.064 80.8999 256.237 80.5188C256.86 79.0635 257.378 77.3309 257.655 75.841C257.793 74.9747 258.07 73.658 258.277 72.8957C258.45 72.1334 258.761 70.886 258.934 70.1237C259.972 66.035 260.11 64.6836 259.937 61.773C259.591 56.9912 259.246 55.2934 257.932 52.7639C255.753 48.4673 251.776 45.4874 245.966 43.8934C243.407 43.1658 242.439 43.1311 225.633 43.0272C215.95 42.9579 207.858 43.0272 207.651 43.1658ZM236.526 62.7432C237.183 63.055 238.186 63.748 238.704 64.3371C239.673 65.342 239.673 65.4459 239.534 68.5991C239.465 70.4009 239.119 72.8611 238.808 74.1085C238.497 75.3559 238.047 76.9844 237.874 77.7468C237.321 79.9297 236.941 81.4197 236.353 83.6373C236.042 84.7808 235.661 86.34 235.488 87.1023C235.35 87.8646 234.935 89.4239 234.624 90.5674C234.278 91.7108 233.932 92.9929 233.863 93.4433C233.759 93.8591 233.552 94.3096 233.379 94.4135C233.206 94.5175 233.068 94.8986 233.068 95.2798C233.068 96.146 231.097 99.2646 229.748 100.512C229.195 101.032 227.984 101.794 227.016 102.244C225.46 102.937 224.63 103.041 218.544 103.215C209.483 103.457 209.933 103.527 210.279 101.69C210.417 100.858 210.867 99.2299 211.247 98.0865C211.662 96.9083 211.973 95.6263 211.973 95.2451C211.973 94.864 212.112 94.2749 212.284 93.9284C212.734 93.0622 213.702 89.7357 213.702 88.9734C213.702 88.6269 213.841 88.0032 214.014 87.5528C214.186 87.1023 214.498 86.0628 214.74 85.1966C214.947 84.3303 215.535 82.4592 215.985 81.0039C216.434 79.5486 216.815 78.024 216.815 77.6082C216.815 77.1923 216.953 76.6033 217.126 76.2568C217.679 75.1826 218.544 72.2027 218.544 71.4404C218.544 71.0246 218.717 70.5741 218.889 70.4702C219.097 70.3662 219.235 69.8811 219.235 69.396C219.235 68.9456 219.374 68.2872 219.547 67.9407C219.719 67.6289 220.134 66.2429 220.48 64.9262C220.791 63.5748 221.241 62.362 221.448 62.2234C221.656 62.0848 224.872 62.0155 228.572 62.0848C233.69 62.1888 235.592 62.3274 236.526 62.7432Z" fill="black"/>
<path d="M269.903 43.7962C269.658 44.2462 269.344 45.2155 269.204 45.9771C269.064 46.7386 268.68 48.4349 268.366 49.7849C268.051 51.1004 267.702 52.8312 267.597 53.5928C267.492 54.3544 267.282 55.116 267.108 55.2891C266.933 55.4968 266.793 56.016 266.793 56.466C266.793 56.9161 266.619 57.5738 266.409 57.9546C266.06 58.6123 265.885 59.3739 265.046 63.9779C264.872 64.9126 264.312 67.2666 263.788 69.1705C263.299 71.0744 262.74 73.3245 262.6 74.19C261.902 77.7209 261.203 80.698 260.749 82.1519C260.434 83.0173 259.945 84.8866 259.63 86.3059C259.316 87.7252 258.932 89.3868 258.757 89.9753C258.547 90.5638 258.407 91.3254 258.407 91.6716C258.407 92.0177 258.268 92.7793 258.093 93.3678C257.534 95.0987 256.73 98.4565 256.311 100.672C255.892 102.922 255.577 104.307 254.913 106.73C254.459 108.53 253.9 110.953 253.656 112.442C253.551 112.996 253.341 113.792 253.201 114.173C252.817 115.142 252.118 117.669 251.769 119.538C251.594 120.404 251.349 121.511 251.21 122.065L251 123L260.888 122.931L270.812 122.827L270.916 121.788C270.951 121.2 271.161 120.438 271.301 120.058C271.475 119.677 271.79 118.431 272.034 117.288C272.628 114.242 273.432 110.849 273.816 109.638C273.991 109.049 274.131 108.288 274.131 107.942C274.131 107.595 274.306 106.765 274.48 106.141C274.69 105.518 275.004 104.48 275.179 103.822C275.389 103.164 275.703 101.711 275.878 100.637C276.053 99.5296 276.332 98.5257 276.507 98.3527C276.647 98.2142 281.259 98.0411 286.71 97.9719C294.676 97.868 297.157 97.7296 299.044 97.2449C304.11 95.9987 307.709 94.0601 311.203 90.7369C314.208 87.8983 315.396 86.2021 317.493 81.8057C318.087 80.5595 318.75 79.2441 318.96 78.8633C319.379 78.0671 319.834 76.4401 320.253 74.19C320.428 73.3245 320.882 71.386 321.266 69.8628C321.825 67.7512 321.965 65.9511 322 62.2125C322 57.5738 321.79 56.1891 320.637 53.2466C319.31 49.958 316.444 46.9463 313.195 45.4578C308.373 43.2423 308.862 43.2769 288.736 43.1385L270.322 43L269.903 43.7962ZM300.337 62.7317C300.791 63.0087 301.35 63.3894 301.56 63.5971C303.796 65.8473 302.503 74.0515 299.498 76.7516C297.541 78.4825 296.458 78.6902 288.317 78.6902H280.7L280.909 77.894C281.923 74.5015 282.412 72.3553 283.111 68.3743C283.216 67.7512 283.425 67.1627 283.6 67.0589C283.775 66.955 283.914 66.3665 283.914 65.7088C283.914 64.4626 284.508 62.801 285.137 62.3163C285.312 62.1778 288.631 62.1086 292.475 62.1432C297.681 62.2125 299.673 62.3855 300.337 62.7317Z" fill="black"/>
<path d="M349.373 43.3213C344.962 43.8065 339.15 45.7822 336.551 47.7233C335.56 48.4858 331.867 52.16 330.91 53.3731C330.534 53.8584 329.987 54.7249 329.713 55.2795C329.44 55.8687 328.858 56.9086 328.448 57.6018C328.003 58.3297 327.662 59.1269 327.662 59.3696C327.662 59.6122 327.388 60.4441 327.012 61.2066C325.542 64.3608 324.311 71.1545 324.721 73.8581C325.302 78.0175 325.508 78.9533 326.191 80.4091C326.567 81.2756 327.115 82.5235 327.422 83.182C328.14 84.8458 331.115 87.792 333.235 89.0398C335.628 90.3916 338.842 91.3275 344.757 92.3673C351.151 93.4765 352.04 93.7191 353.305 95.0016C354.468 96.1801 354.604 97.3586 353.818 99.161C353.168 100.651 352.69 101.275 351.561 102.038C349.647 103.286 348.416 103.39 335.218 103.598L322.054 103.806L321.781 104.845C321.37 106.267 320.823 108.658 320.481 110.565C320.345 111.431 319.934 113.06 319.627 114.204C318.43 118.675 317.746 122.454 318.088 122.8C318.225 122.973 325.234 123.043 333.679 122.973C351.356 122.8 351.561 122.765 358.092 119.507C361.203 117.948 362.058 117.289 364.691 114.62C366.64 112.61 367.973 110.877 368.52 109.698C368.965 108.693 369.512 107.757 369.683 107.653C369.888 107.514 370.298 106.821 370.606 106.128C370.879 105.435 371.358 104.326 371.632 103.702C371.905 103.078 372.11 102.142 372.11 101.622C372.11 101.067 372.247 100.513 372.384 100.305C372.555 100.131 372.965 99.0917 373.273 97.9825C374.162 95.1402 374.162 86.0936 373.307 83.8753C372.179 80.929 371.803 80.2358 370.503 78.78C367.289 75.2445 363.528 73.7194 354.502 72.2636C347.8 71.2238 346.809 70.9465 345.646 69.8027C343.902 68.0003 344.757 64.4995 347.287 63.2863C349.305 62.3158 354.126 62.0038 365.272 62.0732C371.016 62.1078 375.871 62.1078 376.111 62.0732C376.35 62.0732 376.624 61.4493 376.726 60.7214C376.965 59.3696 377.068 59.0229 378.265 54.7596C378.675 53.3385 379.154 51.6054 379.29 50.9468C379.427 50.2882 379.872 48.4858 380.282 46.9954C380.692 45.4703 381 43.9798 381 43.5986C381 43.0093 380.35 42.9747 366.4 43.0093C358.331 43.044 350.672 43.1826 349.373 43.3213Z" fill="black"/>
<path d="M407.756 43.8312C407.374 44.2814 406.298 46.0823 405.395 47.8831C403.902 50.8615 403.381 51.8658 402.547 53.3896C402.373 53.6667 401.991 54.4632 401.644 55.1212C401.332 55.7792 400.707 56.9221 400.255 57.6147C399.804 58.342 399.456 59.1385 399.456 59.4156C399.456 59.6926 399.317 59.9697 399.178 60.039C399.005 60.0736 398.241 61.4589 397.442 63.0866C395.949 66.0649 394.247 69.2165 393.344 70.6017C393.066 71.0173 392.858 71.6061 392.858 71.8831C392.858 72.1602 392.754 72.4372 392.615 72.5065C392.441 72.5411 391.99 73.303 391.538 74.1342C391.121 74.9654 390.531 76.1082 390.218 76.7316C389.906 77.3203 389.489 78.0823 389.35 78.3939C389.176 78.7403 388.482 80.0563 387.787 81.3377C387.093 82.6537 385.599 85.3896 384.523 87.5022C383.411 89.5801 381.918 92.3853 381.224 93.7359C380.494 95.0519 379.175 97.5455 378.272 99.2771C377.369 100.974 376.049 103.468 375.354 104.749C374.66 106.065 374.104 107.277 374.104 107.485C374.104 107.693 373.548 108.593 372.889 109.494C372.229 110.394 371.673 111.294 371.673 111.468C371.673 112.056 370.353 114.55 369.798 115.035C369.485 115.277 369.242 115.727 369.242 116.039C369.242 116.351 369.103 116.766 368.93 116.974C368.304 117.632 365.804 122.584 366.012 122.792C366.151 122.896 370.319 123 375.354 123H384.453L385.46 120.991C386.016 119.918 386.676 118.706 386.884 118.325C387.058 117.944 387.892 116.247 388.725 114.584C389.524 112.887 390.392 111.294 390.67 111.017C391.364 110.359 413.487 110.29 413.938 110.948C414.077 111.19 414.251 113.892 414.32 116.939C414.424 120.541 414.598 122.584 414.876 122.723C415.084 122.861 423.489 123 433.525 123H451.793L452.175 121.511C452.73 119.433 453.529 115.762 453.772 114.342C453.876 113.684 454.12 112.506 454.293 111.745C454.953 108.905 455.752 105.13 456.064 103.606C456.203 102.74 456.516 101.597 456.724 101.043L457.106 100.074L458.079 101.39C458.6 102.152 459.329 103.364 459.711 104.126C460.093 104.887 460.892 106.273 461.447 107.242C462.038 108.177 462.975 109.84 463.496 110.879C464.017 111.918 464.92 113.649 465.511 114.688C466.101 115.727 467.247 117.909 468.115 119.537C468.949 121.13 469.817 122.584 470.06 122.723C470.303 122.861 478.395 123 488.084 123H505.657L508.019 118.429C509.304 115.9 510.728 113.095 511.179 112.16L512.047 110.532H523.439C531.53 110.532 534.934 110.636 535.107 110.913C535.246 111.121 535.42 113.823 535.524 116.905C535.628 120.437 535.837 122.584 536.08 122.723C536.288 122.861 540.421 123 545.248 123H554L553.826 122.203C553.757 121.788 553.479 118.948 553.305 115.9C553.097 112.853 552.75 108.316 552.576 105.857C552.402 103.364 552.125 99 551.951 96.1602C551.777 93.2857 551.534 90.1688 551.395 89.2338C551.152 87.1212 550.562 79.329 550.18 73.4762C550.041 71.0866 549.659 66.342 549.346 62.9134C549.034 59.4848 548.617 54.5671 548.409 52.0043C548.235 49.4416 547.957 46.3939 547.818 45.2511L547.575 43.1732L538.893 43.0693C534.135 43.0346 529.863 43.0693 529.412 43.1732C528.926 43.2771 528.37 43.9351 527.884 45.0087C527.467 45.9091 526.773 47.2251 526.321 47.9177C525.87 48.645 525.522 49.4416 525.522 49.7532C525.522 50.0303 525.383 50.2727 525.175 50.2727C525.001 50.2727 524.828 50.4805 524.828 50.6883C524.828 51.2424 522.987 54.9134 522.675 55.0519C522.501 55.1212 522.397 55.3983 522.397 55.6753C522.397 55.9524 522.049 56.7489 521.598 57.4762C521.146 58.1688 520.521 59.3117 520.174 59.9697C518.438 63.4329 514.756 70.0823 514.374 70.5325C514.201 70.7056 514.062 71.1212 514.062 71.4675C514.062 71.8139 513.923 72.0909 513.749 72.0909C513.576 72.0909 513.367 72.368 513.263 72.6797C513.159 73.026 512.777 73.8571 512.395 74.5152C512.013 75.1732 511.283 76.5931 510.762 77.632C510.242 78.671 509.095 80.8528 508.227 82.4805C505.241 88.0563 503.192 92.0043 501.629 95.1212C500.761 96.8182 499.927 98.2727 499.753 98.342C499.614 98.4113 499.476 98.7576 499.476 99.1039C499.476 99.4502 499.337 99.8312 499.163 99.9697C498.712 100.212 497.739 102.186 497.739 102.81C497.739 103.052 497.635 103.26 497.461 103.26C497.322 103.26 496.906 103.952 496.524 104.818C496.142 105.684 495.725 106.377 495.586 106.377C495.412 106.377 495.308 106.688 495.308 107.035C495.308 107.416 495.204 107.762 495.065 107.831C494.891 107.866 493.78 109.944 492.565 112.368C490.342 116.801 489.265 118.117 488.849 116.87C488.571 115.97 487.98 114.619 487.564 113.823C487.355 113.442 486.487 111.71 485.584 110.013C484.681 108.281 483.604 106.273 483.153 105.511C482.736 104.749 481.764 102.948 481 101.528C480.236 100.108 479.472 98.7922 479.298 98.5844C478.673 97.9264 479.02 97.4762 480.479 97.026C482.354 96.4719 486.904 94.1861 488.015 93.2511C490.029 91.5541 492.877 88.5411 492.877 88.1255C492.877 87.8831 492.981 87.6753 493.155 87.6753C493.294 87.6753 493.711 87.0866 494.093 86.3593C494.475 85.6667 494.857 85.0087 494.961 84.9048C495.134 84.7316 496.906 80.8528 497.392 79.5368C498.156 77.5974 499.094 73.8571 499.823 69.8398C500.066 68.697 500.379 67.1039 500.552 66.2727C501.073 63.987 500.969 58.9654 500.379 56.8528C500.101 55.8139 499.753 54.5671 499.614 54.0823C498.746 50.6537 495.551 46.9481 492.009 45.3203C487.807 43.3117 487.216 43.2424 468.775 43.1039C459.468 43 451.48 43.0346 451.029 43.1385C450.473 43.2771 450.195 43.658 450.056 44.4545C449.917 45.0779 449.674 46.3593 449.501 47.329C449.292 48.2641 449.014 49.961 448.806 51.0346C448.632 52.1082 448.389 53.1818 448.25 53.355C448.146 53.5628 447.868 54.5671 447.695 55.5714C446.861 59.9004 446.722 60.6277 446.167 62.9134C445.819 64.2294 445.437 66.0996 445.298 67.0693C445.125 68.0043 444.847 69.4242 444.639 70.1861C443.18 75.9004 443.076 76.4199 442.208 81.0952C442.034 81.961 441.652 83.5887 441.305 84.7316C440.506 87.5368 440.089 89.2338 439.742 91.381C439.603 92.3506 439.36 93.355 439.221 93.5281C439.117 93.7359 438.839 94.7403 438.665 95.7446C438.492 96.7143 438.179 98.1688 438.005 98.9307C437.832 99.6926 437.519 101.147 437.346 102.117C437.172 103.121 436.894 104.091 436.79 104.299C436.686 104.506 436.443 105.372 436.269 106.307C435.401 110.913 434.602 114.273 434.255 114.931C434.012 115.346 433.838 116.074 433.838 116.558C433.838 118.74 432.483 119.364 432.414 117.182C432.414 116.489 432.24 113.476 432.101 110.532C431.789 105.58 431.546 101.944 430.747 92.1775C430.573 90.1688 430.261 86.1169 430.052 83.1732C429.844 80.2294 429.601 77.3203 429.462 76.7662C429.358 76.1775 429.115 73.5455 428.941 70.8788C428.767 68.2121 428.49 64.4026 428.316 62.3939C428.142 60.3853 427.83 56.1948 427.621 53.0433C427.413 49.8918 427.066 46.3593 426.857 45.1472L426.475 43H417.481H408.486L407.756 43.8312ZM478.013 62.2554C478.708 62.3939 479.819 62.9134 480.444 63.4329L481.59 64.4026L481.555 67.4848C481.521 70.1861 481.382 70.8442 480.514 72.6104C478.673 76.2814 477.388 76.697 467.872 76.5238L462.142 76.4199L462.177 75.381C462.246 74.3766 462.628 72.0909 463.323 68.974C464.156 65.1299 464.781 62.6364 464.955 62.3593C465.163 62.013 475.999 61.9437 478.013 62.2554ZM533.336 73.3377C533.753 82.4459 534.031 91.6926 533.927 91.9004C533.857 92.0736 531.079 92.1775 527.745 92.1775C522.709 92.1775 521.702 92.1082 521.702 91.6926C521.702 91.4156 521.876 91.0693 522.049 90.9654C522.258 90.8615 522.397 90.4459 522.397 90.0996C522.397 89.7532 522.501 89.4069 522.675 89.3377C522.813 89.2684 524.619 85.8052 526.668 81.6147C528.752 77.4242 530.662 73.5455 530.94 73.026C531.218 72.4719 531.426 71.7792 531.426 71.4675C531.426 70.7056 532.503 69.5628 532.92 69.9784C533.093 70.1515 533.267 71.6407 533.336 73.3377ZM412.098 71.4675C412.237 72.2987 412.306 73.7186 412.271 74.6883C412.167 77.5628 412.931 90.7229 413.174 91.1732C413.313 91.381 413.209 91.6926 412.966 91.8658C412.375 92.2468 400.394 92.2814 400.568 91.9004C400.637 91.7619 402.443 88.0563 404.631 83.6926C406.784 79.2944 408.694 75.4156 408.833 75.0346C410.118 71.9177 411.195 70.0476 411.681 70.013C411.82 70.013 411.993 70.671 412.098 71.4675Z" fill="black"/>
<path d="M566.617 43.4156C566.549 43.658 566.307 44.5584 566.066 45.4242C565.825 46.29 565.411 47.5714 565.17 48.2987C564.894 48.9913 564.687 49.961 564.687 50.4459C564.687 50.8961 564.549 51.3463 564.377 51.4502C564.204 51.5541 563.998 52.2468 563.894 52.9394C563.791 53.6667 563.549 54.8095 563.343 55.4675C561.205 62.5671 561.205 61.9091 563.274 62.1861C564.239 62.3247 570.547 62.3939 577.304 62.3593C584.026 62.3593 589.646 62.3939 589.715 62.4978C589.887 62.671 589.128 64.1255 587.646 66.5152C587.129 67.2771 586.75 68.0043 586.75 68.1082C586.75 68.2121 586.371 68.9394 585.854 69.7013C584.785 71.3983 583.992 72.8528 582.165 76.2468C581.441 77.6667 580.717 78.9134 580.579 79.0173C580.476 79.1212 580.131 79.6407 579.855 80.2294C579.579 80.7835 579.062 81.7186 578.649 82.3074C577.959 83.3463 577.028 85.0087 575.856 87.329C575.512 87.987 575.167 88.6104 575.063 88.7143C574.788 88.9567 574.029 90.1342 573.753 90.7922C573.616 91.0693 573.443 91.381 573.34 91.4848C573.167 91.6234 572.547 92.697 571.444 94.7749C571.237 95.1558 570.996 95.5368 570.892 95.6407C570.789 95.7446 570.547 96.1255 570.341 96.5065C569.306 98.4459 568.617 99.658 568.479 99.7965C568.341 99.9351 567.652 101.147 566.617 103.087C566.411 103.468 566.169 103.848 566.066 103.952C565.962 104.056 565.721 104.437 565.514 104.818C564.79 106.134 562.86 109.667 562.17 110.879C561.791 111.537 561.136 112.714 560.723 113.476C560.309 114.238 559.482 115.727 558.861 116.766C558.24 117.805 557.654 118.948 557.551 119.26C557.448 119.606 557.241 119.883 557.068 119.883C556.896 119.883 556.758 120.056 556.758 120.299C556.758 120.506 556.379 121.199 555.862 121.857L555 123H564.963C572.374 123 575.029 122.896 575.443 122.584C575.753 122.342 576.58 121.026 577.27 119.71C577.959 118.359 578.752 117.043 579.028 116.732C579.304 116.455 579.51 116.074 579.51 115.935C579.51 115.797 580.028 114.896 580.648 113.892C581.269 112.887 581.993 111.606 582.268 111.052C582.544 110.463 583.475 108.835 584.337 107.416C585.199 105.996 586.129 104.333 586.405 103.779C586.681 103.19 587.267 102.152 587.715 101.424C588.439 100.212 589.542 98.3074 590.68 96.1602C590.887 95.7792 591.128 95.3983 591.231 95.2944C591.507 95.0173 592.197 93.8398 592.817 92.5931C593.127 91.9351 594.851 88.9913 596.644 86.013C598.402 83.0346 599.85 80.4026 599.85 80.1602C599.85 79.9177 599.988 79.71 600.16 79.71C600.332 79.71 600.539 79.4329 600.643 79.0866C600.849 78.4978 602.297 75.8658 602.607 75.5541C602.711 75.4502 602.952 75.0693 603.159 74.6883C603.538 73.9957 605.193 70.9827 606.503 68.6277C606.848 67.9697 607.296 67.2424 607.434 67.0693C607.71 66.7229 610.364 61.8052 611.019 60.4199C611.226 59.9697 611.502 59.6234 611.674 59.6234C611.812 59.6234 611.915 59.3117 611.915 58.9654C611.915 58.5844 612.019 58.2381 612.191 58.1688C612.467 58.0649 615.018 54.1861 615.018 53.8745C615.018 53.7706 615.949 52.1775 617.086 50.3766C618.224 48.5411 619.155 46.8095 619.155 46.4978C619.155 46.1861 619.603 45.355 620.189 44.697C620.74 44.0043 621.085 43.3463 620.982 43.2078C620.878 43.1039 608.606 43 593.748 43C572.443 43 566.721 43.1039 566.617 43.4156Z" fill="black"/>
<path d="M622.897 44.6277C621.821 47.9177 621.508 48.7143 621.231 49.303C621.057 49.6494 620.918 50.3074 620.918 50.7576C620.918 51.2424 620.779 51.7273 620.571 51.8312C620.397 51.9351 620.224 52.4199 620.224 52.8701C620.224 53.3203 620.015 54.2208 619.738 54.8442C619.46 55.4675 619.078 56.6797 618.835 57.5455C618.592 58.4113 618.21 59.7273 617.932 60.4545C617.655 61.2165 617.55 61.9091 617.655 62.013C617.759 62.1169 624.147 62.1861 631.855 62.1169C641.506 62.0476 645.95 62.1515 646.089 62.3939C646.228 62.6017 645.916 63.2944 645.43 63.9524C644.944 64.5758 644.527 65.2684 644.527 65.4762C644.527 65.684 644.388 65.8571 644.18 65.8571C644.006 65.8571 643.833 66.0303 643.833 66.2727C643.833 66.4805 643.485 67.1385 643.034 67.7273C642.617 68.316 642.027 69.2511 641.749 69.8398C641.472 70.3939 641.159 70.9481 641.055 71.0519C640.708 71.3636 637.236 76.9394 637.236 77.1818C637.236 77.2857 636.854 77.9091 636.368 78.5325C635.882 79.1558 635.5 79.8139 635.5 80.0216C635.5 80.2294 635.361 80.4026 635.153 80.4026C634.979 80.4026 634.806 80.5411 634.806 80.7489C634.806 80.9221 634.111 82.1688 633.243 83.5195C632.375 84.8701 631.681 86.0476 631.681 86.1515C631.681 86.2554 631.299 86.8442 630.813 87.4675C630.327 88.0909 629.945 88.7835 629.945 88.9913C629.945 89.2338 629.806 89.4069 629.667 89.4069C629.494 89.4069 629.077 90.0303 628.695 90.7922C628.348 91.5541 627.931 92.1775 627.792 92.1775C627.619 92.1775 627.515 92.3506 627.515 92.5931C627.515 92.8009 627.133 93.4935 626.647 94.1169C626.161 94.7403 625.779 95.329 625.779 95.4329C625.779 95.5368 624.702 97.3377 623.348 99.4502C622.029 101.563 620.918 103.433 620.918 103.606C620.918 103.814 620.779 103.952 620.606 103.952C620.432 103.952 620.189 104.229 620.085 104.541C619.633 105.684 619.009 106.723 618.766 106.723C618.592 106.723 618.488 106.896 618.488 107.104C618.488 107.312 618.106 107.97 617.655 108.558C617.203 109.182 616.405 110.429 615.884 111.398C615.363 112.333 614.391 113.857 613.766 114.792C613.106 115.693 612.586 116.489 612.586 116.593C612.586 116.662 611.752 118.048 610.711 119.675C609.669 121.268 608.905 122.688 609.01 122.792C609.148 122.896 613.592 123 618.904 123C628.348 123 629.945 122.827 629.945 121.892C629.945 121.684 630.327 120.991 630.813 120.368C631.299 119.745 631.681 119.156 631.681 119.052C631.681 118.948 633.313 116.281 635.326 113.13C637.34 110.013 638.972 107.346 638.972 107.242C638.972 107.139 639.666 105.996 640.534 104.645C641.402 103.294 642.097 102.117 642.097 102.013C642.097 101.909 642.479 101.32 642.965 100.697C643.451 100.074 643.833 99.4502 643.833 99.3117C643.833 99.1732 644.388 98.2035 645.048 97.1645C645.707 96.1255 646.263 95.1905 646.263 95.0866C646.263 94.9827 646.645 94.3939 647.131 93.7706C647.617 93.1472 647.999 92.5238 647.999 92.4199C647.999 92.316 648.936 90.7229 650.082 88.9221C651.228 87.0866 652.165 85.4589 652.165 85.2511C652.165 85.0779 652.339 84.9048 652.512 84.9048C652.721 84.9048 652.859 84.7316 652.859 84.4892C652.859 84.2814 653.241 83.5887 653.727 82.9654C654.214 82.342 654.595 81.7532 654.595 81.6494C654.595 81.5455 655.29 80.368 656.158 79.0173C657.026 77.6667 657.72 76.4892 657.72 76.3506C657.72 76.2468 658.102 75.6234 658.588 75C659.074 74.3766 659.456 73.7879 659.456 73.684C659.456 73.5801 660.012 72.645 660.671 71.6061C661.331 70.5671 661.886 69.5281 661.886 69.3203C661.886 69.1472 662.06 68.974 662.234 68.974C662.442 68.974 662.581 68.8009 662.581 68.5931C662.581 68.3853 662.963 67.7273 663.449 67.1039C663.935 66.4805 664.317 65.8571 664.317 65.7186C664.317 65.5801 664.872 64.6104 665.532 63.5714C666.192 62.5325 666.747 61.5628 666.747 61.3896C666.747 61.2165 666.851 61.0087 667.025 60.9394C667.303 60.8355 669.177 58.0303 669.177 57.7186C669.177 57.6147 669.733 56.645 670.393 55.6061C671.052 54.5671 671.608 53.632 671.608 53.5628C671.608 53.4589 672.163 52.6277 672.823 51.6926C673.483 50.7922 674.038 49.9264 674.038 49.8571C674.038 49.7532 674.975 48.2987 676.086 46.6017C677.232 44.9394 678.065 43.4156 677.996 43.2771C677.892 43.1385 665.601 43 650.637 43H623.453L622.897 44.6277Z" fill="black"/>
<path d="M681.21 43.1544C681.071 43.2931 680.966 43.7785 680.966 44.1946C680.966 44.6454 680.826 45.3389 680.652 45.7897C680.477 46.2405 680.093 47.4541 679.744 48.4944C679.395 49.5346 678.976 50.5402 678.836 50.7136C678.662 50.9216 678.522 51.4418 678.522 51.9272C678.522 52.378 678.138 53.869 677.719 55.2214C677.265 56.5737 676.671 58.3768 676.462 59.2437C676.218 60.1106 675.868 61.0815 675.694 61.3936C675.449 61.879 675.519 62.0177 675.973 62.0177C676.322 62.0177 682.816 62.0524 690.393 62.1218C703.486 62.1911 704.184 62.2258 704.08 62.8153C703.94 63.5088 698.074 72.8711 697.655 73.0445C697.516 73.1138 697.376 73.3219 697.376 73.4953C697.376 73.6686 696.817 74.6395 696.154 75.6798C695.491 76.7201 694.932 77.691 694.932 77.8297C694.932 77.9684 694.373 78.8353 693.71 79.7368C693.047 80.673 692.488 81.6093 692.488 81.7827C692.488 81.9907 692.348 82.1294 692.174 82.1294C691.999 82.1294 691.755 82.4068 691.65 82.7189C691.545 83.0656 691.231 83.6551 690.987 84.0366C689.206 86.984 688.822 87.5388 688.682 87.6775C688.542 87.7815 688.228 88.3016 687.949 88.8911C687.67 89.4459 686.936 90.6595 686.308 91.5264C685.679 92.428 685.156 93.2602 685.156 93.3989C685.156 93.5029 684.772 94.1271 684.283 94.7512C683.794 95.3754 683.41 95.9995 683.41 96.1036C683.41 96.2423 682.851 97.1785 682.188 98.2187C681.525 99.259 680.966 100.23 680.966 100.369C680.966 100.473 680.407 101.34 679.744 102.241C679.081 103.143 678.522 103.975 678.522 104.079C678.522 104.218 676.497 107.512 673.983 111.43C671.504 115.348 669.444 118.712 669.444 118.885C669.444 119.093 669.304 119.232 669.13 119.232C668.955 119.232 668.711 119.509 668.606 119.821C668.152 120.966 667.524 122.006 667.279 122.006C667.105 122.006 667 122.249 667 122.526C667 122.977 668.292 123.046 677.37 122.977L687.705 122.873L688.682 121.139C689.241 120.168 689.799 119.163 689.939 118.885C690.079 118.608 690.323 118.192 690.463 118.018C690.812 117.602 693.989 112.366 695.211 110.216C695.7 109.35 696.224 108.587 696.398 108.552C696.538 108.483 696.678 108.275 696.678 108.136C696.678 107.963 697.62 106.333 698.773 104.53C699.925 102.692 700.867 101.166 700.867 101.062C700.867 100.993 702.124 98.9469 703.661 96.5543C705.197 94.1271 706.454 92.0812 706.454 91.9772C706.454 91.8732 706.838 91.2837 707.327 90.6595C707.816 90.0354 708.2 89.4112 708.2 89.3072C708.2 89.1685 708.758 88.2323 709.422 87.192C710.085 86.1517 710.644 85.1808 710.644 85.0421C710.644 84.9381 711.202 84.0712 711.866 83.1697C712.529 82.2681 713.088 81.4012 713.088 81.2972C713.088 81.1585 713.646 80.1876 714.31 79.1473C714.973 78.1071 715.532 77.1708 715.532 77.0321C715.532 76.9281 715.881 76.3386 716.335 75.7492C716.754 75.1597 717.347 74.1888 717.627 73.634C717.906 73.0445 718.22 72.5244 718.325 72.4203C718.639 72.1083 720.42 69.3342 720.42 69.1262C720.42 69.0222 721.362 67.4618 722.515 65.6586C723.667 63.8555 724.61 62.2951 724.61 62.1564C724.61 62.0177 724.994 61.4283 725.448 60.8041C725.936 60.18 726.739 58.9316 727.263 57.9954C727.787 57.0592 728.52 55.7762 728.869 55.1174C729.253 54.4585 729.917 53.4529 730.336 52.8635C730.755 52.274 731.348 51.3031 731.593 50.7483C731.872 50.1588 732.605 49.0145 733.199 48.1476C733.792 47.2807 734.386 46.2752 734.525 45.8591C734.63 45.4776 735.084 44.7841 735.468 44.368C735.887 43.9519 736.097 43.5011 735.957 43.3624C735.643 43.0504 681.525 42.8423 681.21 43.1544Z" fill="black"/>
<defs>
<linearGradient id="paint0_linear_316_18692" x1="144.389" y1="112.454" x2="144.389" y2="21.3839" gradientUnits="userSpaceOnUse">
<stop stop-color="white" stop-opacity="0.5"/>
<stop offset="1" stop-color="white" stop-opacity="0"/>
</linearGradient>
<linearGradient id="paint1_linear_316_18692" x1="62.4009" y1="102.774" x2="143.671" y2="21.5043" gradientUnits="userSpaceOnUse">
<stop stop-color="white" stop-opacity="0.5"/>
<stop offset="1" stop-color="white" stop-opacity="0"/>
</linearGradient>
<linearGradient id="paint2_linear_316_18692" x1="101.68" y1="63.5139" x2="20.41" y2="144.774" gradientUnits="userSpaceOnUse">
<stop stop-color="white" stop-opacity="0.5"/>
<stop offset="1" stop-color="white" stop-opacity="0"/>
</linearGradient>
<linearGradient id="paint3_linear_316_18692" x1="59.8261" y1="103.517" x2="95.2658" y2="71.0197" gradientUnits="userSpaceOnUse">
<stop stop-color="white" stop-opacity="0.2"/>
<stop offset="0.15" stop-color="white" stop-opacity="0.11"/>
<stop offset="0.31" stop-color="white" stop-opacity="0.05"/>
<stop offset="0.5" stop-color="white" stop-opacity="0"/>
<stop offset="0.74" stop-color="white" stop-opacity="0"/>
</linearGradient>
</defs>
</svg>
